<?xml version="1.0" standalone="no"?>
<!DOCTYPE svg PUBLIC "-//W3C//DTD SVG 1.1//EN" "http://www.w3.org/Graphics/SVG/1.1/DTD/svg11.dtd" >
<svg xmlns="http://www.w3.org/2000/svg">
<metadata>
Created by FontForge 20120731 at Wed Nov 11 16:25:56 2015
 By Ads
</metadata>
<defs>
<font id="iconfont" horiz-adv-x="1024" >
  <font-face 
    font-family="iconfont"
    font-weight="500"
    font-stretch="normal"
    units-per-em="1024"
    panose-1="2 0 6 3 0 0 0 0 0 0"
    ascent="812"
    descent="-212"
    x-height="792"
    bbox="0.466667 -212 1185 812.45"
    underline-thickness="50"
    underline-position="-100"
    unicode-range="U+0078-E61A"
  />
<missing-glyph horiz-adv-x="374" 
d="M34 0v682h272v-682h-272zM68 34h204v614h-204v-614z" />
    <glyph glyph-name=".notdef" horiz-adv-x="374" 
d="M34 0v682h272v-682h-272zM68 34h204v614h-204v-614z" />
    <glyph glyph-name=".null" horiz-adv-x="0" 
 />
    <glyph glyph-name="nonmarkingreturn" horiz-adv-x="341" 
 />
    <glyph glyph-name="x" unicode="x" horiz-adv-x="1001" 
d="M281 543q-27 -1 -53 -1h-83q-18 0 -36.5 -6t-32.5 -18.5t-23 -32t-9 -45.5v-76h912v41q0 16 -0.5 30t-0.5 18q0 13 -5 29t-17 29.5t-31.5 22.5t-49.5 9h-133v-97h-438v97zM955 310v-52q0 -23 0.5 -52t0.5 -58t-10.5 -47.5t-26 -30t-33 -16t-31.5 -4.5q-14 -1 -29.5 -0.5
t-29.5 0.5h-32l-45 128h-439l-44 -128h-29h-34q-20 0 -45 1q-25 0 -41 9.5t-25.5 23t-13.5 29.5t-4 30v167h911zM163 247q-12 0 -21 -8.5t-9 -21.5t9 -21.5t21 -8.5q13 0 22 8.5t9 21.5t-9 21.5t-22 8.5zM316 123q-8 -26 -14 -48q-5 -19 -10.5 -37t-7.5 -25t-3 -15t1 -14.5
t9.5 -10.5t21.5 -4h37h67h81h80h64h36q23 0 34 12t2 38q-5 13 -9.5 30.5t-9.5 34.5q-5 19 -11 39h-368zM336 498v228q0 11 2.5 23t10 21.5t20.5 15.5t34 6h188q31 0 51.5 -14.5t20.5 -52.5v-227h-327z" />
    <glyph glyph-name="uniE600" unicode="&#xe600;" 
d="M512 -95h-1q-88 32 -164.5 114t-121 186.5t-44.5 202.5q0 44 6 72q-1 -1 -5 -3l8 5l322 204v50q-4 1 -7 0h-1q-1 0 -1 -0.5t-1 -0.5q-5 -1 -8 -2l-341 -217q-19 -11 -17 -30h-1v-16q-1 -6 0 -32t1 -30q0 -80 28.5 -166t77 -161t119.5 -133.5t150 -83.5h1v41zM512 -95h1
q88 32 164.5 114t121 186.5t44.5 202.5q0 44 -6 72q1 -1 5 -3l-8 5l-322 204v50q4 1 7 0h1q1 0 1 -1h1l8 -2l341 -217q19 -11 17 -30h1v-16v-16v-16q0 -7 -0.5 -15.5t-0.5 -14.5q0 -80 -28.5 -166t-77 -161t-119.5 -133.5t-150 -83.5h-1v41z" />
    <glyph glyph-name="uniE601" unicode="&#xe601;" 
d="M979 -132l-269 268q87 104 87 239q0 102 -50 188t-136.5 136t-187.5 50q-51 0 -99.5 -13.5t-89.5 -37.5t-75.5 -58.5t-59 -75.5t-38 -89.5t-13.5 -99.5q0 -101 50.5 -187.5t136.5 -136.5t188 -50q135 0 239 86l268 -268zM88 375q0 68 26.5 130t71.5 107t107 71.5
t130 26.5t130 -26.5t106.5 -71.5t71 -107t26.5 -130t-26.5 -130t-71 -106.5t-106.5 -71t-130 -26.5q-91 0 -168 44.5t-122 121.5t-45 168z" />
    <glyph glyph-name="uniE602" unicode="&#xe602;" 
d="M510 -146q-91 0 -173.5 35.5t-142.5 95.5t-95.5 142.5t-35.5 173.5t35.5 174t95.5 143t142.5 95.5t173.5 35.5q73 0 141.5 -22.5t123.5 -64t96.5 -96.5t64 -123.5t22.5 -141.5q0 -91 -35.5 -173.5t-95.5 -142.5t-143 -95.5t-174 -35.5zM510 703q-81 0 -155.5 -32
t-128.5 -85.5t-85.5 -128t-31.5 -156.5q0 -65 20 -126t57.5 -110.5t86.5 -87t110.5 -57.5t126.5 -20q82 0 156 32t128 85.5t86 128t32 155.5q0 109 -54 201.5t-146.5 146.5t-201.5 54zM446 77q0 26 18 43q25 24 50 24q14 0 25.5 -5t21.5 -15q20 -20 20 -48t-19 -48
q-9 -9 -20.5 -14t-26.5 -5q-30 0 -49.5 20t-19.5 48zM534 197h-17h-27l-33 150q-18 90 -24 128q-1 8 -1.5 15t-1 12.5t-0.5 9.5q0 3 3 15q1 12 5.5 21t12 14.5t18.5 9t25 4.5q15 2 20 3q32 0 54 -16.5t22 -46.5q0 -9 -1 -22.5t-3 -31t-5 -39.5l-25 -131q-5 -29 -10.5 -52.5
t-11.5 -42.5z" />
    <glyph glyph-name="uniE603" unicode="&#xe603;" horiz-adv-x="1199" 
d="M600 776l-586 -586h238v-384h223q58 127 179 197v62q-139 -69 -213 -204h-134v384h-163l456 456l455 -456h-163v-384h-146v-55h201v384h238z" />
    <glyph glyph-name="uniE604" unicode="&#xe604;" 
d="M942 -78q-34 150 -154 247q-58 47 -128 72q-13 5 -27 9q29 17 53 41q73 73 73 176.5t-73.5 177t-177 73.5t-177 -73.5t-73.5 -177t74 -176.5q24 -25 53 -41q-4 -2 -8.5 -3.5t-8.5 -2.5t-9 -3q-35 -13 -67 -31t-61 -42q-120 -97 -153 -248q-3 -10 3 -19t16 -11q1 -1 3 -1
h3q8 0 15.5 5.5t9.5 14.5q29 133 135 220q52 41 114 64q32 11 65.5 17t67.5 6q69 0 133 -23q15 -6 30 -12.5t29 -14.5t27.5 -17.5t26.5 -19.5q106 -86 136 -218q2 -7 6.5 -12t11 -7t13.5 -1q10 3 15.5 12t3.5 19zM309 468q0 82 58.5 140.5t141 58.5t141 -58.5t58.5 -140.5
q0 -54 -26.5 -100t-72.5 -73t-100 -27t-100 27t-73 73t-27 100z" />
    <glyph glyph-name="uniE605" unicode="&#xe605;" 
d="M949 110v664h-871v-664l-23 -286h917zM97 -138l19 245v1v2v626h795v-626v-2v-1l19 -245h-833zM764 626q0 -16 -12 -26q-3 -45 -23 -85.5t-51 -70t-72.5 -46.5t-87.5 -17q-92 0 -159 62.5t-75 152.5l-6 6q-3 3 -5 7t-3.5 8t-1.5 9q0 15 10.5 25.5t25.5 10.5t25.5 -10.5
t10.5 -25.5t-10 -25q5 -73 59.5 -123.5t128.5 -50.5q48 0 89.5 22.5t67.5 61.5t31 87q-14 10 -14 28q0 3 0.5 6t1 5.5t2.5 4.5l2 6q2 2 4 3.5t4.5 3.5t5.5 3l4 2q3 1 6 1.5t6 0.5q9 0 17.5 -5t13.5 -13t5 -18z" />
    <glyph glyph-name="uniE606" unicode="&#xe606;" 
d="M740 -13v-28q0 -12 -8.5 -20.5t-20.5 -8.5h-398q-8 0 -14.5 4t-10.5 10.5t-4 14.5v28q0 6 -2 11t-6 9t-9 6.5t-11 2.5q-12 0 -20 -8.5t-8 -20.5v-28q0 -49 41 -74q21 -11 44 -12h398q23 0 43 11.5t31 31t11 43.5v28q0 6 -2 11t-6 9t-9 6.5t-11 2.5q-12 0 -20 -8.5
t-8 -20.5zM256 370q-28 -29 -28 -30v-2v-3v-3v-4v-41v-36v-35v-256q0 -12 8 -20t20 -8q8 0 14.5 3.5t10 10t3.5 14.5v256v14v15v14v13v15v41v10l2 3q-2 -1 -30 -28q6 0 11 2t9 6t6 9t2 11q0 12 -8 20.5t-20 8.5zM275 320l1 1q8 8 8 20t-8 20q-4 4 -9.5 6.5t-10.5 2.5
t-10.5 -2.5t-9.5 -6.5l-2 -1q-8 -9 -8 -20.5t8 -19.5q21 -21 41 0zM749 320q25 -25 60.5 -25t60.5 25l101 100q25 25 25 60.5t-25 60.5l-161 161q-21 21 -51 24l3 -1v0q-5 2 -9 2h-147q-8 0 -15 -5q-5 -3 -10.5 -6t-11 -5.5t-11 -4.5t-11 -3.5t-11.5 -2.5t-12 -1.5t-12 -0.5
q-43 0 -79 24q-7 5 -15 5h-147q-2 0 -4 -0.5t-5 -1.5l1 1q-7 -1 -13 -3t-12.5 -5t-12.5 -7t-11 -9l-161 -161q-25 -25 -25 -60.5t25 -60.5l101 -100q25 -25 60.5 -25t60.5 25q8 8 8 19.5t-8 20.5q-3 3 -6.5 4.5t-7 2.5t-7 1t-7 -1t-7 -3t-6.5 -4q-8 -9 -19.5 -9t-20.5 9
l-100 100q-6 6 -8 13t0 14.5t8 13.5l161 160q2 3 4.5 4.5t5.5 2.5t7 1q4 1 5 1h-6h147l-16 5q50 -34 110 -34q20 0 39 4t37 11.5t34 18.5l-16 -5h147h-3h-3h3q4 -1 6.5 -1.5t5 -1.5t4.5 -2.5t3 -3.5l161 -160q9 -9 9 -20.5t-9 -20.5l-100 -100q-6 -6 -13 -8t-14.5 0t-13 7.5
t-13 7.5t-14.5 0t-13 -7q-8 -9 -8 -20.5t8 -19.5zM748 321l1 -1q2 -2 4 -3.5t5 -2.5l4 -2q3 -1 5 -1h5q2 0 4 1l6 2q2 1 4 2.5t4 3.5q8 8 8 19.5t-8 20.5l-2 1q-4 4 -9.5 6.5t-10.5 2.5t-10.5 -2.5t-9.5 -6.5q-3 -3 -5 -7t-3 -8.5t0 -9t3 -8.5t5 -7zM768 17q28 -28 28 -25v9
v31v36v60v2v95v116q0 5 -1 9t-4 7.5t-6.5 6.5t-7.5 4.5t-9 1.5q-8 0 -14.5 -4t-10 -10.5t-3.5 -14.5v-116v-95v-2v-96v-18v-14v-8v-4q12 -8 22 -12t16.5 -4.5t10.5 2t5.5 6.5t1.5 9t-2 10.5t-6 9t-9 6t-11 2.5z" />
    <glyph glyph-name="uniE607" unicode="&#xe607;" 
d="M364 339q-13 -12 -18 -28t0 -32.5t19 -27.5l309 -271q2 -1 3.5 -2.5t3.5 -2t4 -0.5h4q2 0 4 0.5t4 1.5l4 2q2 1 3 3q6 7 5.5 15.5t-7.5 14.5l-309 271q-14 12 -1 24l310 281q4 3 5.5 7t2 8t-1 8t-4.5 7q-4 5 -9.5 6.5t-11 0.5t-9.5 -5z" />
    <glyph glyph-name="uniE608" unicode="&#xe608;" 
d="M642 307q14 -12 0 -24l-309 -271q-7 -6 -7.5 -14.5t5.5 -15.5q3 -4 8.5 -6t11 -1t10.5 5l309 271q13 11 18 27.5t0.5 32.5t-17.5 28l-310 281q-7 6 -15.5 5.5t-14.5 -7.5q-2 -2 -3.5 -4.5t-2 -5t0 -5.5t1 -5.5t2 -5t3.5 -4.5z" />
    <glyph glyph-name="uniE609" unicode="&#xe609;" 
d="M361 738h-170q-18 0 -34.5 -4.5t-30.5 -12.5t-26 -20t-20 -26t-12.5 -30.5t-4.5 -34.5v-149q0 -53 37.5 -90.5t90.5 -37.5h170q53 0 90.5 37.5t37.5 90.5v149q0 53 -37.5 90.5t-90.5 37.5zM425 440q0 -6 -1.5 -11.5t-4 -10.5t-6.5 -9t-8.5 -6.5t-10.5 -4t-11 -1.5h-214
q-17 0 -29.5 12.5t-12.5 30.5v192q0 17 12.5 29.5t29.5 12.5h214q17 0 29.5 -12.5t12.5 -29.5v-192zM361 269h-170q-26 0 -50 -10t-41 -27.5t-27 -41t-10 -49.5v-150q0 -21 6 -40.5t18 -35t28 -27.5t35.5 -18.5t40.5 -6.5h170q53 0 90.5 37.5t37.5 90.5v150q0 26 -10 49.5
t-27 41t-41 27.5t-50 10zM425 -30q0 -18 -12.5 -30.5t-29.5 -12.5h-214q-17 0 -29.5 12.5t-12.5 30.5v192q0 18 12.5 30.5t29.5 12.5h214q17 0 29.5 -12.5t12.5 -30.5v-192zM831 269h-150q-53 0 -90.5 -37.5t-37.5 -90.5v-150q0 -53 37.5 -90.5t90.5 -37.5h150q17 0 33.5 5
t31 13t26 20t20 26t13 30.5t4.5 33.5v150q0 35 -17 64.5t-46.5 46.5t-64.5 17zM895 -30q0 -9 -3.5 -16.5t-9 -13.5t-13.5 -9.5t-17 -3.5h-192q-18 0 -30.5 12.5t-12.5 30.5v192q0 18 12.5 30.5t30.5 12.5h192q12 0 21.5 -6t15.5 -15.5t6 -21.5v-192zM895 632
q0 17 -12.5 29.5t-30.5 12.5h-192q-18 0 -30.5 -12.5t-12.5 -29.5v-192q0 -18 12.5 -30.5t30.5 -12.5h192q18 0 30.5 12.5t12.5 30.5v106h64v-85q0 -35 -17 -64.5t-46.5 -46.5t-64.5 -17h-150q-17 0 -33.5 4.5t-30.5 13t-26 20t-20 25.5t-13 30.5t-5 34.5v149
q0 35 17.5 64.5t47 46.5t63.5 17h150q47 0 82.5 -30.5t43.5 -75.5h-62z" />
    <glyph glyph-name="uniE60A" unicode="&#xe60a;" 
d="M483 754q-117 0 -216 -58t-156.5 -157t-57.5 -216q0 -58 15.5 -114t43 -103t67.5 -87t87 -68t103 -43.5t114 -15.5q153 0 271 97l164 -164l54 55l-163 163q33 38 56.5 82t36 94.5t12.5 103.5q0 178 -126.5 304.5t-304.5 126.5zM91 323q0 80 31 152.5t83.5 125t125.5 83.5
t152 31q107 0 197 -52.5t143 -142.5t53 -196.5t-53 -197t-143 -143t-197 -52.5q-79 0 -152 31t-125.5 83.5t-83.5 125t-31 152.5z" />
    <glyph glyph-name="uniE60B" unicode="&#xe60b;" 
d="M512 812q-37 0 -73.5 -7.5t-69 -21t-62 -33.5t-54 -45t-44.5 -54.5t-34 -62t-21.5 -68.5t-7.5 -74q0 -114 65 -208l3 -3l1 -3q1 -2 3 -4l249 -313q18 -25 45 -25t45 25l249 313q2 2 3.5 4.5t2.5 5.5q21 30 35.5 63t22.5 70t8 75q0 75 -29 142.5t-78 116.5t-117 78
t-142 29zM752 280l-2 -3l-1 -3l-1 -2l-236 -297l-236 297l-1 3l-2 2l-2 3q-12 18 -22 38t-16.5 41t-10 43t-3.5 44q0 121 86 207t207 86q79 0 146.5 -39.5t107 -106.5t39.5 -147q0 -91 -53 -166zM512 593q-61 0 -103.5 -43t-42.5 -103.5t42.5 -103.5t103.5 -43
q40 0 73.5 19.5t53 53.5t19.5 73q0 30 -11.5 57t-31 46.5t-46.5 31.5t-57 12zM512 373q-15 0 -28.5 6t-23.5 15.5t-15.5 23t-5.5 28.5q0 31 21.5 52t51.5 21t51.5 -21t21.5 -51.5t-21.5 -52t-51.5 -21.5zM708 -27q34 -21 34 -44q0 -35 -67.5 -60t-162.5 -25q-27 0 -53 2.5
t-48.5 6.5t-42.5 10t-36 13t-27 15.5t-17 18t-6 19.5q0 8 4 15.5t11.5 14.5t18.5 14q-29 -15 -44.5 -33.5t-15.5 -38.5q0 -47 75 -80t181 -33q70 0 128.5 15t93 41t34.5 57q0 40 -60 72z" />
    <glyph glyph-name="uniE60C" unicode="&#xe60c;" 
d="M51 305q0 -4 1.5 -7.5t4 -6.5t6 -4.5t7.5 -1.5h885q8 0 13.5 6t5.5 14q0 2 -1 4.5t-2 4.5t-3 4t-4 3t-4.5 2t-4.5 1h-885q-8 0 -13.5 -6t-5.5 -13zM89 464v264h258q5 0 9.5 2.5t7 7t2.5 9.5q0 4 -1.5 7.5t-4 6t-6 4t-7.5 1.5h-277q-8 0 -13.5 -5.5t-5.5 -13.5v-283
q0 -3 1.5 -7t4 -6.5t6 -4t7.5 -1.5q5 0 9.5 2.5t7 7t2.5 9.5zM955 449q8 0 13.5 6t5.5 14v277q0 8 -5.5 13.5t-13.5 5.5h-283q-8 0 -13.5 -5.5t-5.5 -13.5q0 -5 2.5 -9.5t7 -7t9.5 -2.5h263v-258q0 -8 6 -14t14 -6zM956 163q-8 0 -13.5 -5.5t-5.5 -13.5v-264h-258
q-8 0 -13.5 -5.5t-5.5 -13.5t5.5 -13.5t13.5 -5.5h277q8 0 13.5 5.5t5.5 13.5v283q0 8 -5.5 13.5t-13.5 5.5zM71 159q-5 0 -9.5 -2.5t-7 -7t-2.5 -9.5v-278q0 -8 5.5 -13.5t13.5 -5.5h283q8 0 13.5 5.5t5.5 13.5q0 5 -2.5 9.5t-7 7t-9.5 2.5h-264v259q0 8 -5.5 13.5
t-13.5 5.5z" />
    <glyph glyph-name="uniE60D" unicode="&#xe60d;" 
d="M512 630q74 0 127 -52.5t53 -127.5q0 -21 -6 -47t-13.5 -49t-22.5 -55.5t-25 -53.5t-30 -56.5t-29 -50.5t-29.5 -50t-24.5 -41q-32 54 -49.5 84t-42 74t-37.5 72t-26.5 61.5t-19 60.5t-5.5 51q0 49 24 90.5t65.5 65.5t90.5 24zM512 710q-53 0 -101 -20.5t-82.5 -55.5
t-55 -83t-20.5 -101q0 -21 3.5 -44t9 -45t15.5 -48t20.5 -49.5t26.5 -54t29.5 -55t34 -60t37 -63t41 -69t42.5 -72.5q21 36 53 89.5t50 84t43 75t39 72.5t30.5 64t24.5 63t13.5 56.5t5.5 55.5q0 108 -76 184t-183 76zM512 543q-37 0 -63.5 -26.5t-26.5 -64t26.5 -64
t63.5 -26.5q25 0 45.5 12t32.5 33t12 45q0 19 -7 35.5t-19 28.5t-29 19.5t-35 7.5z" />
    <glyph glyph-name="uniE60E" unicode="&#xe60e;" 
d="M732 -43q4 0 6 1q15 4 15 19v615q0 4 -2 8t-4.5 6.5t-6.5 4t-8 1.5h-409q-9 0 -15 -6t-6 -14v-615q0 -15 14.5 -19.5t23.5 8.5l187 282l188 -282q2 -3 4.5 -5t6 -3t6.5 -1zM712 45l-168 251q-6 9 -17 9t-17 -9l-167 -251v526h369v-526z" />
    <glyph glyph-name="uniE60F" unicode="&#xe60f;" 
d="M366 808q12 2 18.5 -10.5t14.5 -26.5q3 -7 18 -27t32 -42.5t32 -42t18 -25.5q8 -13 9 -21t-12 -7q-7 1 -16.5 -1.5t-19 -6.5t-18.5 -9.5t-13 -9.5q-5 -7 -9.5 -6.5t-8.5 6t-8 13t-5 15.5q-2 10 -7 29.5t-11 41.5t-11 43.5t-9 36.5q-5 25 -3.5 36.5t9.5 13.5zM663 808
q7 -2 8.5 -13.5t-3.5 -36.5q-3 -15 -8.5 -36.5t-11.5 -43.5t-11 -41.5t-7 -29.5q-2 -8 -5 -15.5t-7.5 -13t-9.5 -6t-10 6.5q-3 4 -11.5 9.5t-19 9.5t-19.5 6.5t-16 1.5q-13 -1 -12 7t8 21q4 6 18.5 25.5t31.5 42t32 42.5t19 27q8 14 14.5 26.5t19.5 10.5zM489 399h48l1 145
h9q5 0 10 0.5t13 0.5t16 -5l16 -9q8 -5 16 -8.5t14 -2.5q6 0 13 11.5t15 27.5t14.5 34t12.5 32q5 13 10 31.5t9 35.5q4 20 6 41l37 -6q15 -3 31 -6l28 -5q10 -3 18.5 -5t15.5 -7t14.5 -12t18 -19.5t25.5 -36.5t31 -50.5t29.5 -50t18.5 -34.5q7 -15 2.5 -19t-9.5 -8
q-6 -4 -20.5 -13.5t-32 -21t-35 -21t-28.5 -14t-14.5 -3t-6.5 7.5q-2 3 -8.5 11.5t-13.5 18t-13 18.5t-8 11q-5 5 -11 0.5t-6 -21.5q0 -8 -0.5 -28t-0.5 -49v-65v-75q0 -105 -2.5 -168.5t-4.5 -99.5q-3 -41 -6 -59h-496q-3 29 -6 65q-2 31 -4.5 73t-1.5 91v81q0 42 -0.5 80
t-1 67t-0.5 43v47q0 17 -9 19q-5 1 -10 -3t-10 -11.5t-9.5 -15.5t-8.5 -14q-8 -11 -13 -16.5t-8 -6.5t-5 0l-8 3q-13 5 -31 14.5t-35 20.5t-30 20t-17 12q-8 5 -11.5 8t1.5 20q3 8 14 28.5t25.5 44.5t30 48t27.5 41q18 26 35 37.5t40 16.5q11 2 28 4.5t32 5.5q17 4 35 7
q4 -21 9 -41q4 -17 7.5 -35t7.5 -29q3 -12 10 -28.5t15 -33t15.5 -29.5t12.5 -16q10 -5 23.5 5.5t30.5 15.5q9 2 17 2.5t14 0.5q7 -1 13 -2v-144z" />
    <glyph glyph-name="uniE610" unicode="&#xe610;" horiz-adv-x="1153" 
d="M1144 468q12 -15 6.5 -33t-19 -29.5t-30.5 -11.5t-27 21q-11 21 -23.5 46t-24.5 48q-14 26 -28 53q32 -16 61 -33q24 -14 48.5 -30.5t36.5 -30.5zM554 272q23 -28 41 -55q16 -23 30 -49.5t17 -48.5t-11 -32t-32.5 -9.5t-37 11t-24.5 30.5q-7 20 -5 46t7 50q5 28 15 57z
M1011 324q26 -10 50 -22q21 -11 42 -26.5t33 -35.5t5 -35t-23 -21.5t-35 -2t-30.5 24.5t-19.5 40.5t-13 37.5q-6 20 -9 40zM683 425q21 -13 39 -29q15 -14 29.5 -31.5t19.5 -37.5t-3.5 -32t-22.5 -15t-30 3.5t-25 23.5t-11.5 37.5t-1.5 38.5q1 21 6 42zM762 798
q20 17 45.5 14t42.5 -23t14 -45.5t-23 -42.5l-339 -277q-20 -17 -45.5 -14t-42.5 23t-14 45.5t23 42.5l115 94q-9 6 -25 16t-37 19.5t-45 16t-49 6.5q-30 0 -64.5 -7t-63 -26t-47 -53t-18.5 -88q0 -56 18.5 -102t46 -88t59.5 -82t59 -84t45.5 -95.5t18.5 -115.5v-144h-122
v154q0 40 -18.5 82t-46.5 86t-60.5 89.5t-60.5 93t-46.5 95.5t-18.5 97q0 146 83 226t240 80q64 0 109 -11t74.5 -26.5t46 -31.5t23.5 -25z" />
    <glyph glyph-name="uniE611" unicode="&#xe611;" 
d="M489 748h47v-127h-47v127zM896 387v-47h-127v47h127zM833 576l24 -41l-110 -64l-24 42zM684 708l-64 -110l41 -24l64 110zM128 341v47h127v-47h-127zM168 536l23 41l110 -64l-23 -41zM300 685l63 -110l41 24l-63 110zM513 562q24 0 51 -8t51.5 -21.5t42.5 -30.5
q60 -60 60 -145q0 -19 -3.5 -37t-10 -35t-15.5 -32q-4 -7 -8.5 -13.5t-10 -13t-11 -12t-11.5 -11t-12.5 -10.5t-13.5 -9v-21l8 1l16 1l6 -14q7 -18 7 -35q0 -9 -2 -17.5t-6 -16.5l-1 -3l2 -5q7 -17 7 -34.5t-8 -33.5l-5 -12l-12 -1l-232 -20l-16 -2l-6 15q-6 17 -7 32
q0 19 8 37l1 3l-2 5l-2 6q-1 3 -1.5 6t-1.5 6t-1 6.5t-1 6.5q0 19 8 37l5 11l12 1l9 1v38q-43 26 -69 69q-10 16 -16.5 33t-10 35.5t-3.5 37.5q0 21 4.5 41.5t12 38.5t18.5 34.5t25 30.5q28 28 65.5 44t79.5 16zM574 -42v-3q0 -16 -8 -29.5t-21.5 -21.5t-29.5 -8
q-22 0 -39 14.5t-19 36.5zM616 43l-200 -17v-6v-3l200 17v3v3v2v1zM616 120l-200 -18v-6v-3l200 18v5v2v2z" />
    <glyph glyph-name="uniE612" unicode="&#xe612;" 
d="M235 620h576l149 -153v-103h-896v107zM213 -20q0 -9 -6 -15t-15 -6h-64q-3 0 -6.5 1t-6 3t-4.5 4.5t-3 6t-1 6.5v384q0 9 6 15t15 6h64q9 0 15 -6t6 -15v-384zM939 -20q0 -4 -2 -8t-4.5 -7t-6.5 -4.5t-9 -1.5h-64q-8 0 -14.5 6t-6.5 15v384q0 4 1.5 8t4.5 7t7 4.5t8 1.5
h64q9 0 15.5 -6t6.5 -15v-384zM320 129q0 -8 -6.5 -14.5t-14.5 -6.5h-43q-9 0 -15 6.5t-6 14.5v171q0 4 1.5 8t4.5 7t7 4.5t8 1.5h43q8 0 14.5 -6t6.5 -15v-171zM789 129q0 -5 -2.5 -10t-7.5 -8t-11 -3h-43q-8 0 -14.5 6.5t-6.5 14.5v171q0 4 1.5 8t4.5 7t7 4.5t8 1.5h43
q9 0 15 -6t6 -15v-171z" />
    <glyph glyph-name="uniE613" unicode="&#xe613;" 
d="M365 671l-192 -222h83l-139 -170h96l-152 -168l238 8v-118h-235v-64h747v64h-384v107h234l-138 171h96l-156 170h113z" />
    <glyph glyph-name="uniE614" unicode="&#xe614;" 
d="M509 747q-74 0 -142.5 -23t-123.5 -64.5t-97 -97t-64.5 -124t-22.5 -141.5q0 -92 35.5 -175t96 -143.5t143.5 -96t174.5 -35.5t175 35.5t143.5 96t96 143.5t36 174.5t-36 175t-96 143.5t-143.5 96t-174.5 36zM244 450q15 36 45 59t71 38.5t86 21t91.5 3.5t87 -12
t74 -26.5t50.5 -37.5q4 -5 7.5 -10t6.5 -11.5t6 -13.5q8 -21 12 -44.5t4 -47.5q-19 -7 -32 -15q-4 -2 -8.5 -5t-8.5 -7l-8 -8q-12 -13 -16.5 -33.5t-1.5 -49.5l-42 17q-150 52 -294 9q-34 -11 -65 -26q3 51 -17.5 77.5t-58.5 40.5q-2 22 0.5 42t10.5 39zM836.5 213.5
q-1.5 -11.5 -6.5 -27.5t-7.5 -24.5t-9.5 -25t-9.5 -22t-10 -21.5t-8.5 -18q-1 -1 -2.5 -1.5t-2.5 -1.5q-2 -2 -4.5 -3.5t-4.5 -2.5h-13v-25q0 -8 -8 -14t-20 -6q-2 0 -4.5 0.5t-5.5 1.5q-2 0 -3.5 1t-3 1.5t-2.5 1.5q-3 3 -6 7l-2 7v25h-388v-25q0 -8 -9 -14q-4 -3 -9 -4.5
t-11 -1.5q-7 0 -13 3t-10 7.5t-4 9.5v25h-14l-4 1l-4 2q-2 0 -2.5 0.5t-1.5 0.5q-23 39 -41.5 96.5t-13.5 108.5q4 47 35 61q11 4 20.5 4t18.5 -4t17 -12q36 -34 20 -103q40 19 81 31q154 44 305 -14q41 -15 47 -21q4 6 6 13t2.5 14.5t0 13.5t-2 11t-1.5 11.5t2 14.5
q7 24 22.5 35.5t33 10t32.5 -13.5q5 -4 9 -9t6.5 -10.5t4.5 -12.5q2 -13 3 -27t-0.5 -28.5t-3 -26z" />
    <glyph glyph-name="uniE615" unicode="&#xe615;" 
d="M319 429h209v-46h-209v46zM319 342h209v-63h-209v63zM319 129h401v-85h-401v85zM827 684h-633q-18 0 -33 -8t-24 -23t-9 -33v-638q0 -18 9 -33t24 -24t33 -9h638q27 0 45.5 19.5t18.5 46.5v638q0 27 -20.5 45.5t-48.5 18.5zM767 -19h-47v20h-401v-20h-47v191h495v-191z
M803 514h-227v-43h191v-42h-191v-46h191v-41h-191v-63h227l-1 -42h-483v-26h-47v237q-27 -32 -54 -61q-7 10 -14.5 20.5t-16.5 21.5q99 95 151 211l46 -18q-9 -17 -18 -33.5t-18 -32.5h194q-18 31 -41 63l42 28q6 -8 50 -76l-24 -15h234v-42zM319 510v-39h209v43h-206z" />
    <glyph glyph-name="uniE616" unicode="&#xe616;" 
d="M324 620h13l-29 113q10 2 21 3t22 0.5t22 -2t22.5 -4t22.5 -6.5l-47 -104h35l86 86q-29 26 -65 39t-74 13q-89 0 -151 -63v0q-13 -12 -23 -26.5t-17.5 -29.5t-12.5 -30.5t-7.5 -32t-2.5 -32.5q0 -80 51 -140l105 104l-3 25l-117 -49q-17 52 -7 111l121 -35l-1 19l-1 10
l-102 57q30 46 83 74l41 -100h15zM456 117l15 -161v-48h244v54l40 456h-22l18 127h68l-58 -599v-3v-78h-338v78v3l-55 566l34 33h274l-17 -127h-94v-1h-28v1h-49h-28h-33l10 -98zM476 620h211l10 70l3 20l19 8l183 79l29 -68l-164 -70l-6 -39h99h40l-3 -41l-62 -637v-114
v-37h-37h-412h-37v37v114l-48 503l-94 -94l-16 -16l-18 16l-3 3q-2 1 -3 3v0q-78 77 -78 187q0 34 8.5 66.5t26 63.5t43.5 56v0q77 77 186 77t186 -77q1 0 1 -1q1 -1 3 -2v-1l2 -2l17 -18l-17 -17z" />
    <glyph glyph-name="uniE617" unicode="&#xe617;" 
d="M752 672h-143q17 -25 17 -53q0 -42 -34 -72.5t-82 -30.5q-32 0 -58.5 14t-42 37.5t-15.5 51.5t17 53h-146v-3l-236 -289l107 -130l129 159v-576h487v578l132 -161l106 130z" />
    <glyph glyph-name="uniE618" unicode="&#xe618;" 
d="M922 469q-33 77 -76 145.5t-84.5 114.5t-81 68t-66.5 11q-35 -14 -48 -63q-3 -10 -8 -34q-21 -96 -60 -156q-106 -160 -420 -288q-25 -10 -39.5 -39t-14.5 -60.5t10 -59.5q18 -41 63.5 -68.5t83.5 -12.5l5 3q3 1 7 2t8.5 2.5t8 3t7 2.5t5.5 2h1q21 -28 59 -34
q26 -6 32 -19q63 -144 66 -151q10 -23 28 -38t33 -9q17 6 57.5 21.5t58.5 22.5q19 7 25.5 23t-0.5 30q-3 6 -11 12.5t-16 10.5t-16 11t-12 15q-1 4 -14.5 34.5t-24 54t-14.5 34.5q-9 23 7.5 41t47.5 21q56 6 106 1.5t83.5 -16t64.5 -26t51 -29t42.5 -25t38 -14t38.5 4.5
q36 15 44.5 82.5t-11.5 167t-64 201.5v0zM890 130q-5 -2 -19.5 6.5t-36 29t-45 49t-49 70t-45.5 87.5q-14 34 -25 69t-17 64.5t-10 58t-4 50.5t1 39t4 26.5t6.5 11t12 -3.5t21 -17t27.5 -28t32 -39t34 -49t34.5 -58t31.5 -66q11 -26 20.5 -52.5t15.5 -50t10.5 -46t7 -41.5
t3.5 -35.5t0.5 -29.5t-1.5 -23t-3.5 -15.5t-5.5 -6.5v0z" />
    <glyph glyph-name="uniE619" unicode="&#xe619;" 
d="M845 162q2 -1 5.5 -2t6 -2t5.5 -2t5 -2q7 -2 10 -3.5t5.5 -4.5t3 -7t0.5 -11v-8h-30q-14 0 -15 -11q0 -2 1 -4.5t3 -4t4.5 -2.5t5.5 -1h31v-13v-14v-12v-20q0 -6 5 -10q3 -3 7 -14v-5v-3q2 -22 -20 -25q-2 -1 -3 -1t-19 -2q4 60 -38 96q-15 13 -33.5 19.5t-40.5 6.5
q-15 -1 -29.5 -5.5t-27.5 -13.5t-22.5 -21t-15.5 -27q-12 -28 -7 -59h-259q7 64 -42 103q-33 27 -79 22q-42 -5 -71.5 -42t-20.5 -89q-28 5 -33 6q-3 0 -6 4q-6 6 -5.5 21t7.5 21q1 2 2.5 4.5t1.5 4.5q1 8 1.5 16.5t0.5 18.5q0 4 2 6.5t6 2.5t24 4q13 3 11 14q-1 5 -5.5 7.5
t-9.5 1.5q-3 -1 -6.5 -1.5t-6 -1t-6 -1t-6.5 -1.5q-2 11 9 18q33 22 74 33q13 4 27.5 7.5t32.5 7.5t29 6q5 2 9 5q50 42 108 70q42 21 109 25q31 2 60 0.5t60 -6.5q9 -1 18 -4t17 -7t16 -9q46 -28 73 -46q20 -15 41 -9q2 0 5 0.5t5.5 1t5.5 1t5 0.5q5 1 8.5 0t6 -3t2.5 -6
q3 -13 -12 -16q-1 0 -6 -1v-1zM591 229q-125 14 -232 -77q21 -5 43 -7.5t48.5 -2.5t42.5 0.5t48.5 2.5t43.5 2q1 15 3 42.5t3 39.5zM616 227q-4 -63 -5 -77q67 5 104 9q-13 18 -27 31.5t-32.5 23t-39.5 13.5zM573 97h15h1q5 1 8.5 4.5t3.5 8.5q-3 9 -13 10h-28q-6 0 -9.5 -3
t-3.5 -8q0 -11 12 -12h14zM311 686h140q17 0 31 -13t14 -31v-40v-41q0 -17 0.5 -53.5t0.5 -54.5v-28v-35v-27q-1 -20 -16.5 -33.5t-32.5 -12.5h-16h-20h-16h-41h-27h-25h-34h-88q-24 0 -35 9q-20 16 -20 41v68v66v68v67q0 7 1.5 13.5t4 12t7 10t10.5 8t14 5.5q2 1 4 1h5h139
zM177 648q-12 0 -12 -12v-133v-133v34v66v34v-36v-64v-34v0q1 -15 16 -15h68h88h7h7h7h6h8h17h19h17h19q14 0 13 14v75v54v53v41v41q0 8 -3 11.5t-11 4.5h-4zM749 -86q-34 0 -56.5 23t-22.5 56t23 55.5t55 22.5q21 0 39 -10t29 -27.5t12 -37.5q1 -35 -23 -59t-56 -23z
M778 -8q1 8 -3.5 15t-11 11t-14.5 4q-12 0 -21 -9t-9 -20q0 -12 8.5 -21t20.5 -9.5t21 8.5t9 21zM197 -7q0 31 22.5 54.5t52.5 23.5q34 1 58.5 -22.5t23.5 -54.5q0 -17 -6 -31.5t-16.5 -25.5t-24.5 -17t-30 -6q-34 0 -57 22.5t-23 56.5zM275 22q-12 0 -20.5 -9t-8.5 -20
q0 -12 9 -21t21 -9t20.5 9t8.5 21t-9 20.5t-21 8.5zM227 390v220h2l5 1q80 0 89 -1q52 -1 70 -41q9 -24 7 -47t-20 -41t-47 -23q-7 -1 -15 -1.5t-18 -0.5h-15h-9v-66h-49zM276 499h38q2 0 3.5 0.5t4.5 0.5q9 2 15 6t9.5 10.5t4.5 14.5q1 31 -27 35q-7 1 -14.5 1.5t-17.5 0.5
h-16v-69z" />
    <glyph glyph-name="uniE61A" unicode="&#xe61a;" 
d="M951 119l30 -10q11 -4 16 -7.5t6.5 -9t2.5 -17.5v-7v-4h-6h-4h-4h-4h-5h-5h-4h-4h-5q-18 0 -19 -15q0 -7 5 -11.5t14 -4.5h13h14h14v-52q0 -22 -1 -26q0 -7 7 -14q3 -3 9 -18q1 0 0.5 -4.5t-0.5 -5.5q1 -13 -2.5 -20t-10 -10t-17.5 -4q-4 0 -7.5 -0.5t-9 -1.5t-8.5 -1
q6 79 -50 127q-41 36 -98 34q-40 -2 -75 -25q-34 -24 -51 -63q-15 -38 -9 -79h-343q10 86 -54 137q-45 35 -105 29q-56 -6 -95 -55t-27 -118q-34 6 -44 8q-3 0 -8 5q-7 8 -6.5 27.5t9.5 28.5q5 5 5 12q2 17 3 46q1 11 11 12q5 0 31 5q8 1 12 6.5t3 11.5q-4 15 -20 12
q-11 -2 -32 -6q-4 14 11 24q43 28 97 43q17 5 37 9.5t43.5 10t37.5 8.5q7 2 12 6q67 56 143 93q55 27 144 33q41 2 79.5 0t78.5 -8q35 -5 68 -26q60 -36 96 -62q14 -9 26.5 -12t28.5 1q1 0 28 4q20 3 22 -12q2 -8 -2.5 -13.5t-13.5 -7.5h-4q-2 -1 -3 -1zM616 208
q-166 18 -308 -103q24 -5 51 -8t48.5 -4t51.5 -0.5t48.5 1.5t51.5 3t49 3q1 12 2 27t2 27t2 27t2 27zM649 205q-6 -75 -8 -102q11 1 42.5 3.5t53 4.5t42.5 4q-54 77 -130 90zM592 33h19h1h1q5 1 8.5 3.5t5.5 6t1 7.5q-1 14 -16 14h-38q-16 -1 -16 -15q-1 -7 3.5 -11t11.5 -5
h6h7h6zM245 812h186q22 0 40.5 -17.5t18.5 -40.5v-54v-53q0 -22 0.5 -70t0.5 -73v-120q-1 -17 -11 -31.5t-24.5 -22t-29.5 -6.5h-18h-16h-18h-16h-54h-36h-33h-15h-14h-16h-117h-10q-4 0 -9 1t-9.5 2t-9 3.5t-8.5 5.5q-26 21 -26 54q-1 206 0 356q0 24 11.5 41t37.5 23
q5 2 11 2h184zM68 762q-15 -1 -15 -16q-1 0 -1 -176v-176v18q1 18 1 44v52v45v18q0 -1 -0.5 -86t-0.5 -91v0q1 -20 22 -20q45 0 89 1h117q15 0 45 -1h96q18 0 18 19v99v70v72v54v54q0 11 -4 15.5t-15 4.5q-2 1 -6 0h-346zM824 -209q-44 0 -74 30.5t-30 74.5q0 43 30 73
t73 30q42 0 73 -29.5t32 -69.5q2 -46 -30 -78t-74 -31zM863 -105.5q0 15.5 -11.5 27.5t-27.5 12q-10 1 -19 -4.5t-14.5 -15t-5.5 -19.5q0 -15 11.5 -27t26.5 -12q15 -1 27.5 11t12.5 27.5zM95 -104q0 41 29.5 71.5t69.5 31.5q45 2 77 -29t32 -74q0 -21 -8.5 -40.5t-22 -33.5
t-32.5 -22.5t-40 -8.5q-45 0 -75 30t-30 75zM198 -66q-16 0 -27.5 -11.5t-11.5 -27.5t12 -27.5t28 -11.5t27.5 12t11.5 28q0 15 -12 27t-28 11zM134 421v290q8 1 9 1h20h19h20h20h19h20q69 -2 93 -55q6 -15 8.5 -31t0.5 -31t-9 -29t-17.5 -25.5t-26.5 -19t-36 -11.5
q-4 0 -63 -2h-12v-87h-23h-20h-22zM199 565h13h12h12h13q3 0 11 1q17 3 27 14t11 27q0 7 -1.5 13.5t-4 12t-7 9.5t-10 7t-12.5 4q-8 1 -16.5 1.5t-15 0.5t-16.5 0.5t-16 0.5v-91z" />
  </font>
</defs>
</svg>
